<svg xmlns="http://www.w3.org/2000/svg" viewBox="1 2 20 30">
  <rect x="1" y="2" width="20" height="30" rx="3" fill="#111111"/>
  <path d="M3.47412 27.4076H9.07147V20.9803C9.07147 17.0622 9.14868 14.2828 9.28378 13.8389C9.5347 12.9317 10.6735 11.6192 11.5227 11.2525C12.3527 10.9244 13.7424 10.9244 14.6109 11.2911C15.1707 11.5227 15.3444 11.542 15.4795 11.349C15.576 11.2139 16.2129 10.0558 16.9078 8.80126C18.3747 6.17629 18.394 6.36931 16.4252 5.44285C14.3986 4.49709 11.8508 4.6901 9.99793 5.90608C9.5926 6.15699 9.22588 6.36931 9.16798 6.36931C9.11007 6.36931 9.07147 6.02188 9.07147 5.59726V4.82521H3.47412V27.4076Z" fill="#FEFEFE"/>
</svg>
